<?xml version="1.0" encoding="UTF-8" standalone="no"?>
<svg
   xmlns:dc="http://purl.org/dc/elements/1.1/"
   xmlns:cc="http://creativecommons.org/ns#"
   xmlns:rdf="http://www.w3.org/1999/02/22-rdf-syntax-ns#"
   xmlns:svg="http://www.w3.org/2000/svg"
   xmlns="http://www.w3.org/2000/svg"
   viewBox="0 0 504.50668 504.49332"
   height="504.49332"
   width="504.50668"
   xml:space="preserve"
   id="svg2"
   version="1.1"><metadata
     id="metadata8"><rdf:RDF><cc:Work
         rdf:about=""><dc:format>image/svg+xml</dc:format><dc:type
           rdf:resource="http://purl.org/dc/dcmitype/StillImage" /></cc:Work></rdf:RDF></metadata><defs
     id="defs6" /><g
     transform="matrix(1.3333333,0,0,-1.3333333,0,504.49333)"
     id="g10"><g
       transform="scale(0.1)"
       id="g12"><path
         id="path14"
         style="fill:#314e9c;fill-opacity:1;fill-rule:evenodd;stroke:none"
         d="M 3783.75,1891.87 C 3783.75,847.031 2936.7,0 1891.88,0 847.004,0 0,847.031 0,1891.87 c 0,1044.87 847.004,1891.87 1891.88,1891.87 1044.82,0 1891.87,-847 1891.87,-1891.87" /><path
         id="path16"
         style="fill:#ffffff;fill-opacity:1;fill-rule:evenodd;stroke:none"
         d="m 1595.41,1320.89 c 0,177.06 -0.68,354.11 0.64,531.14 0.24,29.84 -8.2,39.18 -38.05,37.96 -55.17,-2.24 -110.49,0.23 -165.73,-1.04 -22.37,-0.57 -30.61,5.63 -30.36,29.32 1.11,110.46 1,220.99 0.11,331.48 -0.2,21.25 6.2,28.24 27.69,27.76 56.48,-1.3 113.08,1.58 169.46,-1.21 32.68,-1.6 39.44,10.01 38.76,40.33 -1.97,84.07 -1.97,168.27 -0.13,252.35 2.25,102.69 29.81,198.57 90.98,282.07 77.4,105.74 187.45,154.08 314.41,159.74 130.39,5.79 261.11,2.58 391.66,3.98 18.2,0.21 23.63,-6.29 23.55,-23.99 -0.58,-111.73 -0.7,-223.5 0.08,-335.23 0.18,-19.88 -6.31,-25.96 -25.82,-25.65 -62.79,0.98 -125.59,0.5 -188.34,0.33 -83.57,-0.26 -133.59,-43.25 -138.83,-125.97 -4.2,-66.32 -1.13,-133.04 -2.67,-199.55 -0.57,-23.7 13.51,-22.07 29.19,-22.05 95.41,0.14 190.86,-0.95 286.27,0.68 28.01,0.49 37.25,-5.96 34.05,-35.44 -12.01,-111.02 -22.33,-222.25 -31.84,-333.54 -2.17,-25.11 -13.63,-29.9 -36.19,-29.52 -75.27,1.16 -150.62,0.8 -225.96,0.32 -54.1,-0.32 -48.85,7.92 -48.85,-47.25 -0.25,-346.55 -0.72,-693.11 0.77,-1039.648 0.15,-36.602 -9.2,-45.68 -45.41,-45.043 -129.3,2.383 -258.67,2.5 -387.97,-0.059 -36.44,-0.719 -42.44,11.641 -42.15,44.141 1.38,174.527 0.68,349.049 0.68,523.589" /></g></g></svg>